<?xml version="1.0" encoding="UTF-8" standalone="no" ?>
<!DOCTYPE svg PUBLIC "-//W3C//DTD SVG 1.1//EN" "http://www.w3.org/Graphics/SVG/1.1/DTD/svg11.dtd">
<svg xmlns="http://www.w3.org/2000/svg" xmlns:xlink="http://www.w3.org/1999/xlink" version="1.1" width="1280" height="1024" viewBox="0 0 1280 1024" xml:space="preserve">
<desc>Created with Fabric.js 5.3.0</desc>
<defs>
</defs>
<g transform="matrix(1 0 0 1 640 512)" id="background-logo"  >
<rect style="stroke: none; stroke-width: 0; stroke-dasharray: none; stroke-linecap: butt; stroke-dashoffset: 0; stroke-linejoin: miter; stroke-miterlimit: 4; fill: rgb(12,19,29); fill-rule: nonzero; opacity: 1;"  paint-order="stroke"  x="-640" y="-512" rx="0" ry="0" width="1280" height="1024" />
</g>
<g transform="matrix(1.9211538461538462 0 0 1.9211538461538462 640 395.6864080388972)" id="logo-logo"  >
<g style=""  paint-order="stroke"   >
		<g transform="matrix(0.917930923744532 0 0 0.9179309237445321 0 0)"  >
<g style=""  paint-order="stroke"   >
		<g transform="matrix(1 0 0 1 0 0)"  >
<linearGradient id="SVGID_2_318521" gradientUnits="userSpaceOnUse" gradientTransform="matrix(1 0 0 1 -100 -100)"  x1="0" y1="0" x2="0" y2="200">
<stop offset="0%" style="stop-color:rgb(23,234,217);stop-opacity: 1"/>
<stop offset="100%" style="stop-color:rgb(96,120,234);stop-opacity: 1"/>
</linearGradient>
<polygon style="stroke: none; stroke-width: 1; stroke-dasharray: none; stroke-linecap: butt; stroke-dashoffset: 0; stroke-linejoin: miter; stroke-miterlimit: 4; fill: url(#SVGID_2_318521); fill-rule: nonzero; opacity: 1;"  paint-order="stroke"  points="100,100 0,100 0,95.12 95.12,95.12 95.12,-95.12 -95.12,-95.12 -95.12,0 -100,0 -100,-100 100,-100 100,100 " />
</g>
</g>
</g>
</g>
</g>
<g transform="matrix(1.9211538461538462 0 0 1.9211538461538462 636.7508485576924 667.1128161574082)" id="text-logo"  >
<g style=""  paint-order="stroke"   >
		<g transform="matrix(1 0 0 1 0 0)" id="text-logo-path-0"  >
<path style="stroke: rgb(255,255,255); stroke-width: 0; stroke-dasharray: none; stroke-linecap: butt; stroke-dashoffset: 0; stroke-linejoin: miter; stroke-miterlimit: 4; fill: rgb(49,192,223); fill-rule: nonzero; opacity: 1;"  paint-order="stroke"  transform=" translate(-132.03, 19.25)" d="M 2.2 0 L 6.05 0 L 8.25 -10.45 L 18.09 -10.45 L 20.3 0 L 24.14 0 L 16.06 -38.5 L 10.29 -38.5 Z M 8.96 -13.75 L 13.2 -33.94 L 17.43 -13.75 Z M 50.98 0 L 54.84 0 L 54.84 -14.3 L 58.69 -14.3 L 65.56 0 L 69.69 0 L 62.64 -14.74 C 65.89 -15.56 68.03 -17.82 68.03 -23.1 L 68.03 -29.7 C 68.03 -37.07 63.91 -38.5 58.69 -38.5 L 50.98 -38.5 Z M 54.84 -17.6 L 54.84 -35.2 L 58.69 -35.2 C 62.04 -35.2 64.19 -34.16 64.19 -29.15 L 64.19 -23.65 C 64.19 -18.64 62.04 -17.6 58.69 -17.6 Z M 93.22 0 L 97.07 0 L 99.27 -10.45 L 109.12 -10.45 L 111.32 0 L 115.17 0 L 107.08 -38.5 L 101.31 -38.5 Z M 99.99 -13.75 L 104.22 -33.94 L 108.46 -13.75 Z M 166.1 -38.5 L 160.6 -38.5 L 154.06 -14.96 L 147.51 -38.5 L 142.01 -38.5 L 142.01 0 L 145.86 0 L 145.86 -30.58 L 152.07 -8.25 L 156.03 -8.25 L 162.25 -30.58 L 162.25 0 L 166.1 0 Z M 196.24 0 L 204.49 0 C 209.72 0 213.84 -1.54 213.84 -8.8 L 213.84 -13.2 C 213.84 -17.43 212.47 -19.3 210.27 -20.18 C 212.14 -21.18 213.29 -23.1 213.29 -26.95 L 213.29 -29.7 C 213.29 -37.07 209.17 -38.5 203.94 -38.5 L 196.24 -38.5 Z M 200.09 -3.3 L 200.09 -18.7 L 204.49 -18.7 C 207.84 -18.7 209.99 -17.66 209.99 -12.1 L 209.99 -9.35 C 209.99 -4.34 207.84 -3.3 204.49 -3.3 Z M 200.09 -21.45 L 200.09 -35.2 L 203.94 -35.2 C 207.3 -35.2 209.44 -34.16 209.44 -29.15 L 209.44 -27.5 C 209.44 -22.5 207.3 -21.45 203.94 -21.45 Z M 243.16 -38.5 L 243.16 0 L 247.01 0 L 247.01 -18.15 L 258.01 -18.15 L 258.01 0 L 261.86 0 L 261.86 -38.5 L 258.01 -38.5 L 258.01 -21.45 L 247.01 -21.45 L 247.01 -38.5 Z" stroke-linecap="round" />
</g>
</g>
</g>
<g transform="matrix(1.9211538461538462 0 0 1.9211538461538462 639.9221932692308 399.4872725040416)" id="tagline-3a78d944-c0db-44d4-8ad5-60158c925687-logo"  >
<g style=""  paint-order="stroke"   >
		<g transform="matrix(1 0 0 1 0 0)" id="tagline-3a78d944-c0db-44d4-8ad5-60158c925687-logo-path-0"  >
<linearGradient id="SVGID_318522" gradientUnits="userSpaceOnUse" gradientTransform="matrix(1 0 0 1 3.2399999999999984 -56.7)"  x1="-3.1995006179809593" y1="-14.510339999999985" x2="-3.1995006179809593" y2="77.48966000000001">
<stop offset="0%" style="stop-color:rgb(23,234,217);stop-opacity: 1"/>
<stop offset="100%" style="stop-color:rgb(96,120,234);stop-opacity: 1"/>
</linearGradient>
<path style="stroke: rgb(255,255,255); stroke-width: 0; stroke-dasharray: none; stroke-linecap: butt; stroke-dashoffset: 0; stroke-linejoin: miter; stroke-miterlimit: 4; fill: url(#SVGID_318522); fill-rule: nonzero; opacity: 1;"  paint-order="stroke"  transform=" translate(-19.4, 28.35)" d="M 3.24 0 L 8.91 0 L 12.15 -15.39 L 26.65 -15.39 L 29.89 0 L 35.56 0 L 23.65 -56.7 L 15.15 -56.7 Z M 13.2 -20.25 L 19.44 -49.98 L 25.68 -20.25 Z" stroke-linecap="round" />
</g>
</g>
</g>
<g transform="matrix(1.9211538461538462 0 0 1.9211538461538462 640.537923076923 764.4668646574082)" id="tagline-ee21041c-fd7a-4646-a088-df0a2334375e-logo"  >
<g style=""  paint-order="stroke"   >
		<g transform="matrix(1 0 0 1 0 0)" id="tagline-ee21041c-fd7a-4646-a088-df0a2334375e-logo-path-0"  >
<path style="stroke: none; stroke-width: 0; stroke-dasharray: none; stroke-linecap: butt; stroke-dashoffset: 0; stroke-linejoin: miter; stroke-miterlimit: 4; fill: rgb(63,171,226); fill-rule: nonzero; opacity: 1;"  paint-order="stroke"  transform=" translate(-270.045, 11.198989632674422)" d="M 8 -13.38 C 5.89 -13.38 4.16 -15.1 4.16 -17.22 C 4.16 -19.33 5.89 -21.06 8 -21.06 C 9.34 -21.06 10.59 -20.38 11.3 -19.23 C 11.49 -18.91 11.87 -18.82 12.19 -19.01 C 12.51 -19.2 12.61 -19.62 12.42 -19.9 C 11.49 -21.47 9.82 -22.4 8 -22.4 C 5.15 -22.4 2.82 -20.06 2.82 -17.22 C 2.82 -14.37 5.15 -12.03 8 -12.03 C 10.94 -12.03 13.34 -9.63 13.34 -6.69 C 13.34 -3.74 10.94 -1.34 8 -1.34 C 5.06 -1.34 2.66 -3.74 2.66 -6.69 C 2.66 -7.07 2.34 -7.36 1.98 -7.36 C 1.6 -7.36 1.31 -7.07 1.31 -6.69 C 1.31 -3.01 4.32 0 8 0 C 11.68 0 14.69 -3.01 14.69 -6.69 C 14.69 -10.37 11.68 -13.38 8 -13.38 Z M 52.48 -22.4 L 34.43 -22.4 C 34.05 -22.4 33.76 -22.11 33.76 -21.73 C 33.76 -21.38 34.05 -21.06 34.43 -21.06 L 42.78 -21.06 L 42.78 -0.67 C 42.78 -0.29 43.07 0 43.46 0 C 43.84 0 44.13 -0.29 44.13 -0.67 L 44.13 -21.06 L 52.48 -21.06 C 52.86 -21.06 53.15 -21.38 53.15 -21.73 C 53.15 -22.11 52.86 -22.4 52.48 -22.4 Z M 88.67 -0.93 L 79.74 -21.98 C 79.65 -22.24 79.39 -22.4 79.14 -22.4 C 78.88 -22.4 78.62 -22.24 78.53 -21.98 L 69.41 -0.93 C 69.28 -0.61 69.41 -0.19 69.76 -0.06 C 70.08 0.1 70.46 -0.06 70.62 -0.42 L 73.7 -7.52 L 84.45 -7.52 L 87.46 -0.42 C 87.55 -0.16 87.81 0 88.06 0 C 88.16 0 88.26 -0.03 88.32 -0.06 C 88.67 -0.19 88.83 -0.58 88.67 -0.93 Z M 83.87 -8.86 L 74.3 -8.86 L 79.14 -20.03 Z M 127.07 -14.21 C 127.07 -18.72 123.39 -22.4 118.88 -22.4 L 111.36 -22.4 C 110.98 -22.4 110.69 -22.11 110.69 -21.73 L 110.69 -0.67 C 110.69 -0.29 110.98 0 111.36 0 C 111.71 0 112.03 -0.29 112.03 -0.67 L 112.03 -6.02 L 117.09 -6.02 L 122.91 -0.19 C 122.98 -0.13 123.23 0 123.39 0 C 123.55 0 123.81 -0.13 123.87 -0.19 C 124.06 -0.38 124.06 -0.96 123.87 -1.15 L 118.98 -6.02 C 123.46 -6.08 127.07 -9.73 127.07 -14.21 Z M 118.88 -7.36 L 112.03 -7.36 L 112.03 -21.06 L 118.88 -21.06 C 122.66 -21.06 125.73 -17.98 125.73 -14.21 C 125.73 -10.43 122.66 -7.36 118.88 -7.36 Z M 164.9 -22.4 L 146.85 -22.4 C 146.46 -22.4 146.18 -22.11 146.18 -21.73 C 146.18 -21.38 146.46 -21.06 146.85 -21.06 L 155.2 -21.06 L 155.2 -0.67 C 155.2 -0.29 155.49 0 155.87 0 C 156.26 0 156.54 -0.29 156.54 -0.67 L 156.54 -21.06 L 164.9 -21.06 C 165.28 -21.06 165.57 -21.38 165.57 -21.73 C 165.57 -22.11 165.28 -22.4 164.9 -22.4 Z M 228.8 -22.4 L 214.59 -22.4 L 214.59 -0.67 C 214.59 -0.29 214.88 0 215.26 0 C 215.62 0 215.94 -0.29 215.94 -0.67 L 215.94 -10.53 L 222.78 -10.53 C 223.17 -10.53 223.46 -10.82 223.46 -11.2 C 223.46 -11.58 223.17 -11.87 222.78 -11.87 L 215.94 -11.87 L 215.94 -21.06 L 228.8 -21.06 C 229.18 -21.06 229.47 -21.38 229.47 -21.73 C 229.47 -22.11 229.18 -22.4 228.8 -22.4 Z M 267.49 -14.21 C 267.49 -18.72 263.81 -22.4 259.3 -22.4 L 251.78 -22.4 C 251.39 -22.4 251.1 -22.11 251.1 -21.73 L 251.1 -0.67 C 251.1 -0.29 251.39 0 251.78 0 C 252.13 0 252.45 -0.29 252.45 -0.67 L 252.45 -6.02 L 257.5 -6.02 L 263.33 -0.19 C 263.39 -0.13 263.65 0 263.81 0 C 263.97 0 264.22 -0.13 264.29 -0.19 C 264.48 -0.38 264.48 -0.96 264.29 -1.15 L 259.39 -6.02 C 263.87 -6.08 267.49 -9.73 267.49 -14.21 Z M 259.3 -7.36 L 252.45 -7.36 L 252.45 -21.06 L 259.3 -21.06 C 263.07 -21.06 266.14 -17.98 266.14 -14.21 C 266.14 -10.43 263.07 -7.36 259.3 -7.36 Z M 300.22 0 C 306.4 0 311.42 -5.02 311.42 -11.2 C 311.42 -17.38 306.4 -22.4 300.22 -22.4 C 294.05 -22.4 289.02 -17.38 289.02 -11.2 C 289.02 -5.02 294.05 0 300.22 0 Z M 290.37 -11.2 C 290.37 -16.64 294.78 -21.06 300.22 -21.06 C 305.66 -21.06 310.08 -16.64 310.08 -11.2 C 310.08 -5.76 305.66 -1.34 300.22 -1.34 C 294.78 -1.34 290.37 -5.76 290.37 -11.2 Z M 356.1 -22.37 C 355.78 -22.46 355.49 -22.34 355.33 -22.08 L 345.38 -4.99 L 335.42 -22.08 C 335.26 -22.34 334.98 -22.46 334.66 -22.37 C 334.37 -22.3 334.18 -22.05 334.18 -21.73 L 334.18 -0.67 C 334.18 -0.29 334.46 0 334.85 0 C 335.2 0 335.52 -0.29 335.52 -0.67 L 335.52 -19.26 L 344.8 -3.33 C 344.93 -3.14 345.15 -3.01 345.38 -3.01 C 345.6 -3.01 345.82 -3.14 345.95 -3.33 L 355.23 -19.26 L 355.23 -0.67 C 355.23 -0.29 355.55 0 355.9 0 C 356.29 0 356.58 -0.29 356.58 -0.67 L 356.58 -21.73 C 356.58 -22.05 356.38 -22.3 356.1 -22.37 Z M 424.16 -0.67 L 424.16 -21.73 C 424.16 -22.11 423.87 -22.4 423.49 -22.4 C 423.14 -22.4 422.85 -22.11 422.85 -21.73 L 422.85 -11.87 L 409.15 -11.87 L 409.15 -21.73 C 409.15 -22.11 408.83 -22.4 408.48 -22.4 C 408.1 -22.4 407.81 -22.11 407.81 -21.73 L 407.81 -0.67 C 407.81 -0.29 408.1 0 408.48 0 C 408.83 0 409.15 -0.29 409.15 -0.67 L 409.15 -10.53 L 422.85 -10.53 L 422.85 -0.67 C 422.85 -0.29 423.14 0 423.49 0 C 423.87 0 424.16 -0.29 424.16 -0.67 Z M 462.24 -1.34 L 449.38 -1.34 L 449.38 -10.53 L 457.73 -10.53 C 458.11 -10.53 458.4 -10.82 458.4 -11.2 C 458.4 -11.58 458.11 -11.87 457.73 -11.87 L 449.38 -11.87 L 449.38 -21.06 L 462.24 -21.06 C 462.62 -21.06 462.91 -21.38 462.91 -21.73 C 462.91 -22.11 462.62 -22.4 462.24 -22.4 L 448.03 -22.4 L 448.03 0 L 462.24 0 C 462.62 0 462.91 -0.29 462.91 -0.67 C 462.91 -1.02 462.62 -1.34 462.24 -1.34 Z M 501.28 -14.21 C 501.28 -18.72 497.6 -22.4 493.09 -22.4 L 485.57 -22.4 C 485.18 -22.4 484.9 -22.11 484.9 -21.73 L 484.9 -0.67 C 484.9 -0.29 485.18 0 485.57 0 C 485.92 0 486.24 -0.29 486.24 -0.67 L 486.24 -6.02 L 491.3 -6.02 L 497.12 -0.19 C 497.18 -0.13 497.44 0 497.6 0 C 497.76 0 498.02 -0.13 498.08 -0.19 C 498.27 -0.38 498.27 -0.96 498.08 -1.15 L 493.18 -6.02 C 497.66 -6.08 501.28 -9.73 501.28 -14.21 Z M 493.09 -7.36 L 486.24 -7.36 L 486.24 -21.06 L 493.09 -21.06 C 496.86 -21.06 499.94 -17.98 499.94 -14.21 C 499.94 -10.43 496.86 -7.36 493.09 -7.36 Z M 538.11 -1.34 L 525.25 -1.34 L 525.25 -10.53 L 533.6 -10.53 C 533.98 -10.53 534.27 -10.82 534.27 -11.2 C 534.27 -11.58 533.98 -11.87 533.6 -11.87 L 525.25 -11.87 L 525.25 -21.06 L 538.11 -21.06 C 538.5 -21.06 538.78 -21.38 538.78 -21.73 C 538.78 -22.11 538.5 -22.4 538.11 -22.4 L 523.9 -22.4 L 523.9 0 L 538.11 0 C 538.5 0 538.78 -0.29 538.78 -0.67 C 538.78 -1.02 538.5 -1.34 538.11 -1.34 Z" stroke-linecap="round" />
</g>
</g>
</g>
</svg>